Results
version=1
nRows=31
nColumns=17
inDegrees=yes
endheader
time	/jointset/r_shoulder/r_shoulder_elev/value	/jointset/r_shoulder/r_shoulder_elev/speed	/jointset/r_elbow/r_elbow_flex/value	/jointset/r_elbow/r_elbow_flex/speed	/forceset/TRIlong/activation	/forceset/TRIlong/fiber_length	/forceset/TRIlat/activation	/forceset/TRIlat/fiber_length	/forceset/TRImed/activation	/forceset/TRImed/fiber_length	/forceset/BIClong/activation	/forceset/BIClong/fiber_length	/forceset/BICshort/activation	/forceset/BICshort/fiber_length	/forceset/BRA/activation	/forceset/BRA/fiber_length
      0.00000000	      0.00000000	      0.00000000	      0.00000000	      0.00000000	      0.05000000	      0.13617455	      0.05000000	      0.07016733	      0.05000000	      0.06525919	      0.05000000	      0.14818937	      0.05000000	      0.14730033	      0.05000000	      0.09327498
      0.00458061	     -0.00141574	     -0.60985998	      0.00641048	      2.77581329	      0.04682666	      0.13618110	      0.04682666	      0.07017290	      0.04682666	      0.06526471	      0.04682666	      0.14819468	      0.04682666	      0.14730661	      0.04682666	      0.09327836
      0.01050880	     -0.00709652	     -1.28015642	      0.03275787	      6.04148587	      0.04305019	      0.13620741	      0.04305019	      0.07019524	      0.04305019	      0.06528647	      0.04305019	      0.14821350	      0.04305019	      0.14733046	      0.04305019	      0.09328732
      0.01695660	     -0.01723367	     -1.83829956	      0.08193683	      9.14921017	      0.03932334	      0.13625390	      0.03932334	      0.07023486	      0.03932334	      0.06532444	      0.03932334	      0.14824153	      0.03932334	      0.14736923	      0.03932334	      0.09329590
      0.02340439	     -0.03052763	     -2.26882489	      0.15011525	     11.96553154	      0.03594993	      0.13631292	      0.03594993	      0.07028567	      0.03594993	      0.06537266	      0.03594993	      0.14827091	      0.03594993	      0.14741366	      0.03594993	      0.09330020
      0.02745156	     -0.04018012	     -2.49687827	      0.20197790	     13.65724737	      0.03399561	      0.13635414	      0.03399561	      0.07032168	      0.03399561	      0.06540672	      0.03399561	      0.14828834	      0.03399561	      0.14744188	      0.03399561	      0.09330018
      0.03257866	     -0.05367608	     -2.76645650	      0.27746946	     15.79701766	      0.03168462	      0.13640956	      0.03168462	      0.07037089	      0.03168462	      0.06545329	      0.03168462	      0.14830842	      0.03168462	      0.14747644	      0.03168462	      0.09329582
      0.03770576	     -0.06854875	     -3.03615430	      0.36406414	     17.99446621	      0.02954337	      0.13646772	      0.02954337	      0.07042366	      0.02954337	      0.06550333	      0.02954337	      0.14832587	      0.02954337	      0.14750869	      0.02954337	      0.09328748
      0.04407566	     -0.08898580	     -3.38347630	      0.48766487	     20.83489713	      0.02709841	      0.13654320	      0.02709841	      0.07049401	      0.02709841	      0.06557026	      0.02709841	      0.14834360	      0.02709841	      0.14754465	      0.02709841	      0.09327202
      0.05044557	     -0.11169238	     -3.74933815	      0.62976887	     23.80442769	      0.02486966	      0.13662201	      0.02486966	      0.07056981	      0.02486966	      0.06564266	      0.02486966	      0.14835683	      0.02486966	      0.14757546	      0.02486966	      0.09325089
      0.05681547	     -0.13679596	     -4.13652218	      0.79119882	     26.90266173	      0.02283582	      0.13670426	      0.02283582	      0.07065137	      0.02283582	      0.06572088	      0.02283582	      0.14836551	      0.02283582	      0.14760075	      0.02283582	      0.09322396
      0.06318537	     -0.16443930	     -4.54716743	      0.97276807	     30.12751797	      0.02097806	      0.13679015	      0.02097806	      0.07073908	      0.02097806	      0.06580531	      0.02097806	      0.14836964	      0.02097806	      0.14762032	      0.02097806	      0.09319103
      0.06887276	     -0.19139356	     -4.93511472	      1.15255256	     33.11179980	      0.01945444	      0.13687015	      0.01945444	      0.07082293	      0.01945444	      0.06588629	      0.01945444	      0.14836912	      0.01945444	      0.14763281	      0.01945444	      0.09315646
      0.07456014	     -0.22061449	     -5.34447878	      1.34959222	     36.19570618	      0.01804712	      0.13695348	      0.01804712	      0.07091228	      0.01804712	      0.06597280	      0.01804712	      0.14836362	      0.01804712	      0.14764052	      0.01804712	      0.09311688
      0.08024752	     -0.25222679	     -5.77626381	      1.56445308	     39.37857123	      0.01674643	      0.13704036	      0.01674643	      0.07100744	      0.01674643	      0.06606515	      0.01674643	      0.14835422	      0.01674643	      0.14764334	      0.01674643	      0.09307219
      0.08593490	     -0.28636090	     -6.23172466	      1.79769330	     42.65947485	      0.01554364	      0.13713101	      0.01554364	      0.07110869	      0.01554364	      0.06616365	      0.01554364	      0.14834106	      0.01554364	      0.14763961	      0.01554364	      0.09302229
      0.09162228	     -0.32315795	     -6.71298503	      2.04987749	     46.04049000	      0.01443079	      0.13722564	      0.01443079	      0.07121635	      0.01443079	      0.06626858	      0.01443079	      0.14832411	      0.01443079	      0.14762879	      0.01443079	      0.09296708
      0.09730966	     -0.36276757	     -7.22101005	      2.32157166	     49.52023810	      0.01340068	      0.13732448	      0.01340068	      0.07133072	      0.01340068	      0.06638026	      0.01340068	      0.14830326	      0.01340068	      0.14761203	      0.01340068	      0.09290645
      0.10237397	     -0.40053033	     -7.69623771	      2.58037322	     52.69936344	      0.01254771	      0.13741621	      0.01254771	      0.07143853	      0.01254771	      0.06648571	      0.01254771	      0.14828128	      0.01254771	      0.14759232	      0.01254771	      0.09284788
      0.10743828	     -0.44075455	     -8.19308377	      2.85546142	     55.95168530	      0.01175088	      0.13751159	      0.01175088	      0.07155207	      0.01175088	      0.06659689	      0.01175088	      0.14825605	      0.01175088	      0.14756807	      0.01175088	      0.09278486
      0.11250259	     -0.48354865	     -8.71109002	      3.14719660	     59.27303563	      0.01100626	      0.13761079	      0.01100626	      0.07167164	      0.01100626	      0.06671416	      0.01100626	      0.14822743	      0.01100626	      0.14753919	      0.01100626	      0.09271739
      0.11756690	     -0.52901860	     -9.24969271	      3.45591804	     62.65907205	      0.01031023	      0.13771394	      0.01031023	      0.07179744	      0.01031023	      0.06683764	      0.01031023	      0.14819529	      0.01031023	      0.14750556	      0.01031023	      0.09264537
      0.12191062	     -0.57022875	     -9.72750769	      3.73448615	     65.61119569	      0.00974701	      0.13780319	      0.00974701	      0.07190746	      0.00974701	      0.06694579	      0.00974701	      0.14816342	      0.00974701	      0.14747129	      0.00974701	      0.09257895
      0.12582539	     -0.60913738	    -10.14683288	      3.99649158	     68.23128536	      0.00924299	      0.13787525	      0.00924299	      0.07200317	      0.00924299	      0.06704119	      0.00924299	      0.14812940	      0.00924299	      0.14743028	      0.00924299	      0.09251437
      0.12974015	     -0.64964556	    -10.54419744	      4.26860137	     70.77106559	      0.00873896	      0.13794717	      0.00873896	      0.07210122	      0.00873896	      0.06713844	      0.00873896	      0.14809248	      0.00873896	      0.14738460	      0.00873896	      0.09244620
      0.13358279	     -0.69087580	    -10.91157517	      4.54520283	     73.17975851	      0.00824422	      0.13802002	      0.00824422	      0.07220181	      0.00824422	      0.06723908	      0.00824422	      0.14805447	      0.00824422	      0.14733690	      0.00824422	      0.09237779
      0.13742543	     -0.73347378	    -11.25588205	      4.83089522	     75.50200699	      0.00774948	      0.13809565	      0.00774948	      0.07230617	      0.00774948	      0.06734274	      0.00774948	      0.14801439	      0.00774948	      0.14728672	      0.00774948	      0.09230656
      0.14144273	     -0.77937480	    -11.59181785	      5.13893335	     77.83867590	      0.00723225	      0.13817778	      0.00723225	      0.07241931	      0.00723225	      0.06745586	      0.00723225	      0.14797032	      0.00723225	      0.14723167	      0.00723225	      0.09223033
      0.14636951	     -0.83743036	    -11.96997971	      5.52922235	     80.57556041	      0.00659793	      0.13828277	      0.00659793	      0.07256338	      0.00659793	      0.06759779	      0.00659793	      0.14791329	      0.00659793	      0.14716057	      0.00659793	      0.09213299
      0.14908020	     -0.87013919	    -12.16128372	      5.74960249	     82.01786465	      0.00624893	      0.13834253	      0.00624893	      0.07264536	      0.00624893	      0.06768106	      0.00624893	      0.14788014	      0.00624893	      0.14711973	      0.00624893	      0.09207890
      0.15179088	     -0.90335190	    -12.34183594	      5.97383536	     83.41839087	      0.00589993	      0.13840365	      0.00589993	      0.07272888	      0.00589993	      0.06776397	      0.00589993	      0.14784610	      0.00589993	      0.14707768	      0.00589993	      0.09202341
